<svg xmlns="http://www.w3.org/2000/svg">
    <symbol aria-hidden="true" focusable="false" viewBox="0 0 18 15" id="shortcut-twitter"
      xmlns="http://www.w3.org/2000/svg">
      <path
        d="M11.3 0.166728C13 -0.333272 14.4 0.366728 15 1.26673C15.7 1.06673 16.4 0.766728 17.1 0.566728C17.1 1.36673 16.6 2.06673 16.2 2.26673C16.9 2.46673 17.5 1.76673 17.5 1.76673C17.3 2.76673 16.5 3.46673 15.9 3.76673C15.7 10.3667 12.6 14.7667 5.5 14.5667C5 14.5667 5.6 14.5667 5 14.5667C4.6 14.5667 0.7 14.1667 0 12.7667C2.3 12.9667 4 12.3667 4.8 11.6667C3.8 11.3667 2 11.1667 1.7 8.76673C2.1 8.86673 2.3 8.96673 3 8.86673C1.8 8.06673 0.4 7.36673 0.5 5.16673C0.8 5.46673 1.6 5.66673 1.9 5.66673C1.2 5.46673 -0.1 2.36673 1 0.866728C2.9 2.66673 4.8 4.36673 8.4 4.56673C8.5 2.26673 9.5 0.766728 11.3 0.166728Z"
        fill="white" />
    </symbol>
    <symbol aria-hidden="true" focusable="false" viewBox="0 0 9 19" id="shortcut-facebook"
      xmlns="http://www.w3.org/2000/svg">
      <path
        d="M6.3 3.4C7.1 3.4 7.9 3.4 8.7 3.4C8.7 2.3 8.7 1.2 8.7 0C7.7 0 6.8 0 5.8 0C2.7 0.2 1.5 2.4 1.9 6.1H0V9.6H2C2 12.7 2 15.8 2 18.9C3.3 18.9 4.6 18.9 5.8 18.9C5.8 15.8 5.8 12.7 5.8 9.6H8.7V6.1H5.8C5.8 5.1 5.8 3.7 6.3 3.4Z"
        fill="white" />
    </symbol>
    <symbol aria-hidden="true" focusable="false" viewBox="0 0 20 14" id="shortcut-youtube"
      xmlns="http://www.w3.org/2000/svg">
      <path
        d="M17.1 0H2.8C1.3 0 0 1.3 0 2.8V11.1C0 12.7 1.3 14 2.8 14H17.1C18.7 14 19.9 12.7 19.9 11.2V2.8C20 1.3 18.7 0 17.1 0ZM7 10.4V3.6L13.8 7L7 10.4Z"
        fill="white" />
    </symbol>
    <symbol aria-hidden="true" focusable="false" viewBox="0 0 27 35" id="logotype-HTML-Academy"
      xmlns="http://www.w3.org/2000/svg">
      <path
        d="M13.6 0H13.5L0 1.4V26.1L13.5 34.1L26.9 26.1V1.4L13.6 0ZM25 12.1L13.5 5.3V5.2H13.4L13.3 5.1V5.2L1.9 12.1V3.1L13.4 1.9L25 3.1V12.1ZM13.4 6.8L24.9 13.5L20.4 16.1L13.3 11.9V13.3L19.2 16.8L18.3 17.3L13.3 14.3V15.7L17.1 18L16.3 18.5L13.3 16.7V18.1L15.2 19.2L13.4 20.3L2 13.6L13.4 6.8ZM1.9 15.1L13.3 21.9V22.9L5.4 18.2V19.6L13.4 24.4V25.5L5.4 20.8V22.2L13.4 27L21.5 22.1V16.9L24.9 14.9V24.9L13.4 31.8L1.9 25V15.1Z" />
    </symbol>
    <symbol aria-hidden="true" focusable="false" viewBox="0 0 23 21" id="icon-like" xmlns="http://www.w3.org/2000/svg">
      <path
        d="M12.9636 3.78L12.3364 6.825L11.7091 9.45H14.3227H20.8045V11.55C20.8045 11.55 20.8045 11.55 20.8045 11.655L17.7727 18.9H8.36364V8.4L12.9636 3.78ZM2.09091 10.5V18.9V10.5ZM13.8 0L6.9 6.93C6.48182 7.245 6.27273 7.77 6.27273 8.4V18.9C6.27273 20.055 7.21364 21 8.36364 21H17.7727C18.6091 21 19.3409 20.475 19.6545 19.74L22.7909 12.285C22.8955 12.075 22.8955 11.76 22.8955 11.55V9.45H23C23 8.295 22.0591 7.35 20.9091 7.35H14.3227L15.3682 2.52V2.205C15.3682 1.785 15.1591 1.365 14.95 1.05L13.8 0ZM4.18182 8.4H0V21H4.18182V8.4Z" />
    </symbol>
    <symbol aria-hidden="true" focusable="false" viewBox="0 0 16 20" id="icon-replay"
      xmlns="http://www.w3.org/2000/svg">
      <path
        d="M8 4V0L3 5L8 10V6C11.3 6 14 8.7 14 12C14 15.3 11.3 18 8 18C4.7 18 2 15.3 2 12H0C0 16.4 3.6 20 8 20C12.4 20 16 16.4 16 12C16 7.6 12.4 4 8 4Z" />
    </symbol>
    <symbol aria-hidden="true" focusable="false" viewBox="0 0 32 20" id="icon-subtitle"
      xmlns="http://www.w3.org/2000/svg">
      <path
        d="M29 0H3C1.3 0 0 1.3 0 3v14c0 1.7 1.3 3 3 3h26c1.7 0 3-1.3 3-3V3c0-1.7-1.3-3-3-3ZM14.4 15.9c-.5.1-1.1.1-1.7.1-.7 0-1.4-.1-2-.3-.6-.2-1.2-.6-1.6-1-.4-.4-.8-1.1-1.1-1.9-.3-.8-.4-1.7-.4-2.8 0-1.1.2-2.1.5-2.9.3-.8.7-1.4 1.2-1.9s1.1-.8 1.7-1a9.9 9.9 0 0 1 3.5-.1c.5.1.8.2 1.1.3l-.4 1.9-.9-.3H13c-.9 0-1.6.3-2.2 1-.6.7-.8 1.7-.8 3 0 .6.1 1.1.2 1.6s.3.9.6 1.3c.3.3.6.6 1 .8.4.2.9.3 1.4.3.5 0 .9 0 1.3-.1.3-.1.6-.2.9-.4l.5 1.8c-.5.3-1 .4-1.5.6Zm8.7 0c-.5.1-1.1.1-1.7.1-.7 0-1.4-.1-2-.3-.6-.2-1.2-.6-1.6-1a4 4 0 0 1-1.1-1.9c-.3-.8-.4-1.7-.4-2.8 0-1.1.2-2.1.5-2.9.3-.8.7-1.4 1.2-1.9s1.1-.8 1.7-1a9.9 9.9 0 0 1 3.5-.1c.5.1.8.2 1.1.3l-.4 1.9L23 6h-1.3c-.9 0-1.6.3-2.2 1-.6.7-.8 1.7-.8 3 0 .6.1 1.1.2 1.6s.3.9.6 1.3c.3.3.6.6 1 .8.4.2.9.3 1.4.3.5 0 .9 0 1.3-.1.3-.1.6-.2.9-.4l.5 1.8c-.5.3-1 .4-1.5.6Z" />
    </symbol>
    <symbol aria-hidden="true" focusable="false" viewBox="0 0 20 20" id="icon-fullscreen"
      xmlns="http://www.w3.org/2000/svg">
      <path d="M0 0V3V6H3V3H6V0H3H0Z" />
      <path d="M3 14H0V17V20H3H6V17H3V14Z" />
      <path d="M17 0H14V3H17V6H20V3V0H17Z" />
      <path d="M17 17H14V20H17H20V17V14H17V17Z" />
    </symbol>
    <symbol aria-hidden="true" focusable="false" viewBox="0 0 16 12" fill="none" id="icon-phone" xmlns="http://www.w3.org/2000/svg">
      <path d="M8 8C7.7 8 7.5 7.9 7 7.7L0 4V11C0 11.5 0.5 12 1 12H15C15.5 12 16 11.5 16 11V4L9 7.7C8.5 7.9 8.3 8 8 8ZM15 0H1C0.5 0 0 0.5 0 1V1.8L8 6L16 1.8V1C16 0.5 15.5 0 15 0Z" fill="black" />
    </symbol>
  </svg>
